<?xml version="1.0" standalone="no"?>
<!DOCTYPE svg PUBLIC "-//W3C//DTD SVG 20010904//EN"
 "http://www.w3.org/TR/2001/REC-SVG-20010904/DTD/svg10.dtd">
<svg version="1.0" xmlns="http://www.w3.org/2000/svg"
 width="16.000000pt" height="16.000000pt" viewBox="0 0 16.000000 16.000000"
 preserveAspectRatio="xMidYMid meet">
<metadata>
Created by potrace 1.11, written by Peter Selinger 2001-2013
</metadata>
<g transform="translate(0.000000,16.000000) scale(0.002000,-0.002000)"
fill="#000000" stroke="none">
<path d="M0 6486 l0 -1513 77 -7 c159 -13 247 -8 330 20 66 22 103 27 240 33
109 4 166 10 175 19 17 17 112 15 172 -3 37 -11 103 -15 268 -15 l220 0 29 29
c16 16 29 37 29 45 0 9 4 16 8 16 16 0 45 81 36 100 -11 23 -97 88 -139 106
-22 9 -96 14 -251 15 l-220 2 -46 -27 c-26 -15 -61 -31 -80 -37 -50 -15 -220
-11 -296 6 -85 20 -134 52 -169 112 l-28 48 3 225 c2 124 7 299 12 390 5 91
12 242 15 335 7 194 40 698 55 825 5 47 12 114 15 150 4 36 26 184 51 330 24
146 44 276 44 288 l0 22 -275 0 -275 0 0 -1514z"/>
<path d="M6060 7995 c0 -10 73 -111 124 -170 28 -33 97 -104 153 -158 118
-114 176 -198 274 -401 126 -261 226 -523 256 -671 18 -93 14 -205 -17 -440
-44 -329 -51 -359 -103 -421 -34 -42 -83 -134 -91 -171 -4 -18 -15 -35 -26
-38 -11 -3 -29 -22 -40 -41 -12 -18 -26 -34 -31 -34 -7 0 -42 -56 -44 -70 0
-3 -12 -26 -28 -52 -26 -45 -27 -49 -17 -121 6 -41 15 -90 20 -108 5 -18 7
-42 4 -54 -3 -13 1 -28 10 -37 8 -9 12 -18 9 -22 -4 -3 7 -4 23 0 26 5 36 -1
77 -41 26 -25 47 -50 47 -56 0 -9 21 -34 87 -105 12 -13 25 -33 28 -45 11 -34
55 -67 115 -86 62 -19 64 -19 215 -33 61 -5 142 -14 180 -19 39 -6 97 -14 130
-19 33 -5 86 -16 117 -26 49 -15 87 -17 248 -13 171 4 193 7 205 23 12 15 14
74 15 298 0 278 0 279 -20 261 -11 -10 -20 -24 -20 -31 0 -8 -20 -34 -45 -60
-25 -25 -45 -50 -45 -56 0 -6 -14 -9 -33 -6 -27 3 -40 -3 -68 -29 -30 -29 -40
-33 -92 -33 -40 0 -67 6 -85 18 -15 10 -48 23 -75 30 -59 15 -79 5 -107 -55
-11 -23 -28 -44 -39 -48 -25 -8 -61 10 -61 30 0 8 -7 15 -16 15 -9 0 -14 6
-11 13 2 6 -2 26 -10 44 -23 55 -16 89 26 143 l40 50 -26 45 c-24 44 -45 56
-58 35 -4 -6 -16 -8 -27 -4 -11 3 -26 7 -34 8 -7 1 -21 10 -32 19 -35 31 -60
13 -27 -20 12 -12 13 -18 4 -29 -6 -8 -11 -39 -10 -69 0 -29 -3 -56 -8 -59
-18 -12 -40 6 -47 37 -4 18 -13 45 -20 62 -7 16 -15 43 -19 58 -5 25 -10 28
-30 23 -27 -7 -55 15 -55 43 0 9 -5 22 -12 29 -9 9 -8 17 2 37 10 19 11 31 2
50 -9 19 -8 32 3 59 8 19 19 37 24 40 4 3 11 19 14 35 4 18 18 36 37 47 16 10
34 32 39 49 5 16 12 120 16 230 4 113 13 228 21 263 16 73 18 158 4 167 -6 4
-10 70 -10 165 0 196 16 253 79 288 21 12 53 22 70 22 54 0 71 77 26 120 -30
28 -95 141 -95 165 0 32 62 150 98 188 44 46 67 56 147 67 181 25 228 34 315
56 52 14 134 40 182 57 l88 32 0 133 c0 72 -4 132 -8 132 -5 0 -46 -25 -92
-56 -148 -98 -238 -134 -343 -134 -51 0 -62 4 -87 28 -32 32 -46 96 -37 164 7
54 57 151 108 213 l41 50 -412 3 c-227 1 -415 0 -418 -2 -2 -3 1 -26 6 -53 15
-69 0 -97 -55 -101 -37 -3 -47 2 -92 42 -29 26 -56 46 -61 46 -6 0 -20 -12
-32 -26 -13 -14 -38 -34 -56 -46 l-33 -20 -32 25 c-17 13 -54 50 -82 81 l-50
56 -102 0 c-57 0 -103 -2 -103 -5z"/>
<path d="M3815 7633 c-11 -3 -26 -10 -32 -15 -8 -7 -22 -7 -41 0 -31 11 -103
2 -124 -15 -7 -6 -24 -14 -38 -18 -14 -4 -39 -18 -57 -31 -17 -13 -36 -24 -41
-24 -5 0 -26 -11 -46 -25 -20 -14 -48 -28 -61 -31 -27 -7 -122 -100 -143 -140
-7 -14 -15 -35 -17 -46 -3 -12 -16 -37 -29 -57 -58 -84 -83 -297 -57 -476 6
-44 14 -114 18 -156 5 -72 4 -76 -19 -91 -15 -10 -34 -41 -48 -79 -22 -59 -23
-67 -12 -154 6 -51 17 -115 23 -143 l11 -52 29 15 c16 9 29 22 29 30 0 19 26
20 33 1 3 -8 -9 -26 -27 -43 -50 -44 -53 -67 -16 -104 29 -29 35 -31 80 -26
l49 6 7 -37 c3 -20 17 -92 30 -159 13 -68 36 -198 49 -290 14 -93 28 -177 31
-188 3 -14 -13 -38 -55 -83 l-58 -63 -132 6 c-167 7 -741 9 -761 2 -8 -3 -27
-8 -41 -11 -23 -5 -26 -11 -28 -53 -6 -94 -5 -95 59 -112 34 -9 97 -15 333
-30 65 -5 120 -11 123 -14 5 -4 -139 -77 -152 -77 -2 0 -29 -15 -61 -34 -32
-18 -74 -36 -94 -40 -40 -7 -142 -70 -175 -107 -36 -41 -82 -137 -101 -210
l-18 -70 -83 2 c-84 3 -84 3 -121 42 -20 22 -46 50 -58 62 -12 12 -68 46 -125
74 l-103 51 -175 5 c-230 7 -274 11 -406 37 -110 22 -113 22 -153 4 -42 -20
-73 -18 -161 6 -60 17 -464 17 -506 0 -91 -36 -142 -30 -312 39 -13 5 -25 9
-27 9 -3 0 -5 -751 -5 -1670 0 -918 2 -1670 5 -1670 3 0 24 9 46 19 22 11 66
23 97 27 31 4 62 13 70 20 7 8 33 14 57 14 24 0 50 6 57 14 10 10 20 11 32 4
22 -12 116 18 116 38 0 25 40 15 83 -20 47 -38 91 -49 136 -36 47 13 81 56 81
101 0 22 25 106 44 148 15 33 12 109 -8 211 -21 110 -20 138 4 203 17 46 43
154 55 232 6 41 55 129 87 157 53 45 84 46 338 17 52 -6 152 -13 221 -14 69
-1 135 -8 146 -14 12 -6 35 -28 52 -50 37 -46 40 -95 15 -221 -14 -68 -14 -92
-4 -167 12 -89 13 -101 10 -220 -2 -77 14 -131 62 -208 152 -241 203 -299 353
-401 62 -42 88 -55 96 -47 10 10 9 76 -2 113 -3 11 8 16 41 20 25 3 64 19 87
34 l43 28 52 -20 c29 -11 67 -24 85 -27 36 -7 35 9 8 -167 -8 -54 -15 -119
-15 -145 0 -53 -29 -224 -59 -348 -11 -44 -23 -109 -26 -145 -4 -36 -18 -110
-30 -165 -21 -89 -43 -215 -59 -327 l-5 -38 1561 0 1561 0 -7 63 c-4 34 -18
132 -32 217 -14 85 -34 209 -44 275 -10 66 -30 185 -43 265 -23 130 -33 238
-28 310 l1 25 128 -16 c221 -29 327 -47 562 -99 25 -6 111 -21 192 -34 80 -14
155 -29 167 -35 53 -29 56 -59 26 -276 -25 -185 -75 -636 -75 -673 l0 -22 830
0 830 0 0 710 0 710 -24 0 c-12 0 -37 5 -55 11 -28 10 -31 15 -31 55 0 25 7
58 15 73 12 25 12 31 0 47 -8 11 -15 26 -15 35 0 8 -13 28 -29 43 -24 23 -43
29 -107 37 -42 6 -80 12 -84 14 -8 5 -179 32 -500 79 -155 23 -273 46 -320 62
-41 15 -90 27 -109 28 -30 1 -36 6 -47 39 -7 20 -18 103 -24 185 -14 180 -54
467 -81 582 -27 115 -102 365 -143 475 -19 50 -43 128 -55 175 -12 47 -34 120
-51 164 -24 67 -28 88 -23 140 3 40 0 80 -10 116 -22 79 -80 238 -106 288 -12
23 -35 95 -52 160 -17 70 -47 153 -74 207 -52 106 -161 239 -223 273 -23 13
-40 28 -37 33 9 14 52 11 67 -4 7 -8 35 -17 62 -20 28 -4 60 -14 73 -23 27
-17 137 -16 139 1 0 6 4 18 9 28 5 12 2 22 -8 30 -19 15 -57 86 -57 107 0 9
-9 35 -20 58 -11 22 -20 48 -20 56 0 8 -4 18 -10 21 -5 3 -10 18 -10 31 0 19
-7 29 -28 36 -15 6 -35 21 -44 33 -17 22 -16 22 25 35 23 6 57 23 75 37 29 22
33 29 29 61 -3 19 -1 46 3 58 6 16 4 33 -6 53 -18 37 -12 61 26 105 24 27 50
86 39 86 -2 0 -35 11 -72 25 -67 24 -68 24 -87 5 -27 -27 -34 -63 -21 -101 6
-18 11 -47 11 -65 0 -27 -4 -34 -19 -34 -10 0 -34 -12 -53 -27 -19 -16 -52
-37 -74 -48 -21 -11 -40 -23 -42 -27 -2 -5 -9 -8 -15 -9 -7 0 -32 -25 -57 -55
-25 -30 -51 -61 -58 -69 -7 -8 -36 -17 -64 -21 -63 -9 -83 -27 -103 -98 -12
-42 -22 -56 -43 -65 -41 -16 -123 -16 -157 1 -17 8 -43 18 -60 22 -48 11 -147
62 -181 93 -33 30 -58 88 -47 107 4 6 15 17 25 24 18 13 25 51 11 53 -5 0 -20
2 -35 4 -21 3 -28 -1 -33 -18 -11 -38 -40 -97 -48 -97 -5 0 -5 -4 -2 -10 3 -5
4 -10 0 -10 -10 0 -83 49 -90 60 -9 15 26 80 42 80 7 0 13 5 13 11 0 8 -14 10
-40 6 -22 -3 -43 -1 -46 4 -3 5 -10 7 -15 4 -5 -4 -9 -1 -9 4 0 6 -15 11 -34
11 -41 0 -72 24 -122 91 -21 28 -52 57 -69 65 -17 7 -37 20 -45 28 -7 9 -19
16 -28 16 -12 0 -14 -10 -10 -57 6 -60 -3 -116 -15 -97 -3 6 -7 38 -8 71 -2
50 4 72 34 134 45 94 62 158 48 172 -14 14 -14 54 -1 62 6 3 10 21 10 38 0 18
7 40 14 50 23 31 6 69 -61 133 -67 65 -78 95 -42 115 17 9 19 13 8 20 -11 7
-8 14 14 36 15 16 37 40 48 56 11 15 27 27 34 27 20 0 41 45 49 103 4 26 11
47 15 47 13 0 28 45 51 145 12 51 33 109 50 137 35 57 37 89 10 143 -19 37
-19 39 -1 51 10 8 35 47 54 89 41 86 41 118 0 173 -14 18 -28 54 -32 80 -5 36
-11 47 -26 50 -20 3 -53 16 -87 33 -13 6 -18 5 -18 -3 0 -8 -3 -9 -8 -3 -4 6
-12 11 -18 12 -6 1 -48 38 -94 82 -46 45 -88 81 -94 81 -6 0 -27 11 -46 23
-19 13 -57 32 -84 42 -27 10 -66 33 -87 51 -30 25 -49 33 -78 32 -22 0 -45 3
-51 7 -15 9 -226 16 -255 8z m721 -784 c10 -12 28 -25 40 -29 21 -9 22 -10 53
-186 6 -33 11 -77 11 -97 l0 -37 -42 21 c-24 11 -54 26 -68 32 -15 8 -25 22
-26 35 -2 29 -8 35 -41 40 -23 3 -25 0 -21 -22 6 -32 5 -32 -26 -1 -14 14 -34
25 -46 25 -11 0 -20 3 -20 8 0 4 18 6 40 4 46 -5 56 17 18 37 -21 11 -20 11
10 6 24 -3 34 0 39 11 5 13 8 12 25 -5 24 -27 48 -27 48 -1 0 11 5 20 10 20 6
0 10 16 10 35 0 23 -5 35 -14 35 -19 0 -35 22 -42 58 -8 39 12 44 42 11z m-12
-105 c9 -22 -3 -32 -14 -14 -12 19 -12 30 -1 30 5 0 12 -7 15 -16z m-606 -396
c-4 -37 -16 -44 -43 -23 -20 15 -20 15 4 35 33 28 43 25 39 -12z m496 -14 c16
-6 23 -44 9 -44 -14 0 -29 15 -36 33 -7 18 1 21 27 11z m-144 -33 c0 -18 14
-47 36 -77 20 -26 38 -61 39 -76 1 -16 7 -34 14 -41 13 -13 14 -46 1 -67 -7
-12 -12 -12 -29 4 -29 26 -26 10 4 -26 14 -16 25 -40 25 -53 0 -22 -3 -23 -37
-18 -21 3 -46 12 -55 21 -15 12 -23 13 -47 2 -22 -9 -39 -9 -63 -2 -18 6 -54
13 -80 17 -27 3 -48 11 -48 16 0 15 69 41 90 34 23 -7 35 11 31 50 -1 17 7 51
18 77 11 25 23 67 26 92 6 36 13 49 34 60 38 20 41 19 41 -13z m-620 -81 c0
-5 3 -9 8 -8 10 4 72 -23 72 -31 0 -3 12 -19 27 -36 16 -16 21 -26 11 -23 -8
4 -20 2 -25 -3 -12 -12 -143 41 -143 59 0 6 -4 12 -10 12 -15 0 0 28 18 33 30
8 42 7 42 -3z m180 -132 c0 -4 -12 -15 -26 -24 -22 -15 -27 -15 -35 -3 -17 27
-9 37 26 36 19 -1 35 -4 35 -9z m635 -222 c27 -22 29 -28 27 -82 -3 -62 -29
-171 -43 -180 -5 -3 -9 27 -9 67 0 62 -4 78 -30 121 -35 56 -39 79 -10 53 20
-18 20 -18 14 13 -8 40 8 42 51 8z m-4245 -1246 c0 -5 -9 -10 -20 -10 -11 0
-20 5 -20 10 0 6 9 10 20 10 11 0 20 -4 20 -10z m272 -2227 c9 -10 24 -34 34
-53 37 -72 16 -256 -37 -324 -17 -21 -21 -41 -21 -95 0 -38 -5 -87 -11 -110
-11 -40 -13 -41 -42 -35 -16 3 -31 7 -33 9 -1 1 2 22 7 46 6 24 11 77 11 118
0 63 -3 77 -25 103 -35 41 -48 101 -42 186 6 73 20 103 73 156 21 21 67 20 86
-1z m5132 -86 c25 -40 48 -87 51 -103 6 -27 3 -30 -41 -48 -26 -11 -69 -21
-96 -24 l-48 -5 0 32 c0 18 -7 45 -15 61 -11 22 -12 35 -4 57 12 33 77 103 95
103 7 0 33 -33 58 -73z m-5497 33 c11 -24 17 -100 14 -182 -1 -27 -6 -38 -16
-38 -8 0 -15 5 -15 10 0 6 -9 10 -19 10 -16 0 -21 9 -26 48 -3 26 -10 64 -16
84 -20 76 47 134 78 68z m2934 -123 c-8 -8 -11 -7 -11 4 0 20 13 34 18 19 3
-7 -1 -17 -7 -23z m127 -26 c103 -52 185 -80 237 -81 17 -1 41 -7 55 -15 14
-8 50 -14 81 -15 35 0 61 -5 68 -14 6 -7 21 -12 34 -12 29 3 99 -24 114 -43
11 -14 12 -14 13 4 1 19 1 19 14 3 7 -10 16 -18 20 -18 10 0 7 38 -4 45 -21
13 -8 20 41 22 29 1 59 -2 68 -7 14 -8 13 -10 -4 -11 -11 -1 -30 0 -42 1 -13
1 -23 -3 -23 -8 0 -12 77 -34 98 -28 9 3 24 1 32 -4 11 -7 12 -10 2 -10 -10 0
-12 -9 -7 -31 5 -20 4 -29 -3 -25 -5 3 -13 -1 -16 -10 -4 -9 -9 -14 -13 -11
-3 4 -12 2 -20 -4 -9 -9 -13 -8 -13 0 0 18 -20 12 -20 -6 -1 -17 -1 -17 -14
-1 -7 10 -20 15 -32 12 -12 -3 -26 1 -33 10 -10 12 -29 14 -92 10 -78 -6 -79
-5 -121 29 -24 19 -50 32 -58 29 -13 -4 -13 -3 -2 10 17 21 4 28 -38 19 -35
-7 -118 11 -129 28 -4 4 -19 11 -36 15 -36 8 -191 83 -222 107 -43 32 6 40 65
10z m526 -68 c4 -9 3 -19 0 -22 -4 -3 -9 0 -11 7 -3 7 -16 17 -29 22 -13 5
-24 14 -24 19 0 16 57 -8 64 -26z m-1304 -38 c25 -12 90 -9 90 4 0 4 28 7 63
7 34 0 71 2 81 5 15 3 21 -3 26 -27 4 -17 11 -37 16 -45 21 -35 12 -42 -53
-39 -5 1 -7 16 -5 35 5 46 -12 51 -85 29 -32 -10 -79 -16 -104 -15 -28 1 -52
-4 -60 -11 -25 -24 -63 -44 -113 -61 -66 -22 -80 -22 -73 3 3 12 0 20 -8 20
-17 0 -24 30 -14 57 11 29 38 42 107 52 61 9 93 5 132 -14z m290 21 c0 -3 -4
-8 -10 -11 -5 -3 -10 -1 -10 4 0 6 5 11 10 11 6 0 10 -2 10 -4z m-645 -112
c-38 -40 -64 -96 -72 -149 -3 -25 -10 -48 -14 -51 -13 -7 -11 -64 1 -64 6 0 9
-20 8 -50 -6 -99 -33 -35 -44 101 -6 85 -6 86 31 157 28 55 42 72 58 72 12 0
29 4 37 10 25 15 22 4 -5 -26z m990 -36 c66 -35 89 -54 81 -67 -7 -10 -86 13
-144 43 -28 14 -30 19 -22 46 14 48 23 58 30 30 4 -17 22 -34 55 -52z m962 0
c-3 -8 -6 -5 -6 6 -1 11 2 17 5 13 3 -3 4 -12 1 -19z"/>
<path d="M2640 2031 c0 -12 5 -21 10 -21 6 0 10 6 10 14 0 8 -4 18 -10 21 -5
3 -10 -3 -10 -14z"/>
<path d="M5328 5671 c-37 -65 -36 -86 3 -100 78 -27 114 -6 89 53 -7 17 -13
40 -14 51 -4 61 -43 59 -78 -4z"/>
<path d="M7966 5587 c-15 -11 -16 -18 -7 -54 6 -22 18 -46 26 -53 13 -11 15
-4 15 54 0 68 -4 75 -34 53z"/>
<path d="M7448 5565 c-2 -3 -24 -7 -48 -9 -33 -3 -51 -13 -79 -40 -35 -35 -36
-39 -36 -111 0 -66 3 -76 22 -90 40 -28 51 -44 57 -87 10 -64 45 -101 108
-113 46 -10 58 -8 89 9 32 18 37 26 47 77 8 46 7 67 -5 109 -13 43 -13 60 -3
92 10 36 9 42 -9 62 -12 12 -21 28 -21 35 0 6 -7 25 -15 41 -14 26 -21 30 -59
30 -23 0 -45 -2 -48 -5z"/>
<path d="M6200 5510 c0 -5 5 -10 10 -10 6 0 10 5 10 10 0 6 -4 10 -10 10 -5 0
-10 -4 -10 -10z"/>
<path d="M1745 5180 c-3 -5 0 -19 8 -30 12 -18 15 -18 36 -4 17 13 20 19 10
30 -13 16 -45 19 -54 4z"/>
<path d="M1820 5087 c0 -28 17 -47 42 -47 25 0 24 46 -1 60 -30 16 -41 12 -41
-13z"/>
<path d="M6368 4983 c-10 -3 -19 -19 -23 -44 -6 -34 -3 -44 14 -60 12 -11 21
-28 21 -39 0 -11 12 -24 30 -32 17 -7 30 -19 30 -25 0 -16 6 -16 31 -3 10 6
19 18 19 26 0 8 5 12 10 9 15 -10 12 29 -5 51 -8 10 -15 27 -15 37 0 11 -9 32
-20 47 -15 21 -17 30 -8 33 16 7 -60 6 -84 0z"/>
<path d="M7980 2420 c0 -11 5 -20 10 -20 6 0 10 9 10 20 0 11 -4 20 -10 20 -5
0 -10 -9 -10 -20z"/>
<path d="M7948 2383 c-16 -2 -28 -11 -28 -19 0 -8 -6 -14 -14 -14 -9 0 -15
-16 -18 -49 -3 -27 -12 -57 -21 -65 -9 -9 -19 -33 -22 -54 -3 -20 -8 -45 -10
-54 -2 -12 3 -18 15 -18 10 0 20 -6 23 -13 5 -14 71 -37 106 -37 21 0 21 3 21
165 0 126 -3 165 -12 164 -7 -1 -25 -4 -40 -6z"/>
<path d="M0 320 l0 -320 453 1 c248 0 460 3 469 7 20 8 11 27 -12 27 -9 0 -15
9 -15 24 0 27 -19 38 -38 23 -16 -13 -57 3 -57 22 0 12 -12 14 -60 12 -35 -2
-67 2 -77 9 -29 19 -113 45 -128 38 -9 -3 -15 1 -15 11 0 9 -3 15 -7 15 -31
-5 -52 2 -47 16 5 11 -1 15 -20 15 -30 0 -34 20 -9 46 59 58 44 84 -57 102
-36 7 -70 18 -75 26 -6 8 -30 19 -54 26 -54 14 -115 52 -136 84 -9 13 -27 27
-41 30 -19 5 -23 10 -16 24 5 9 7 24 4 32 -6 15 -42 49 -54 50 -5 0 -8 -144
-8 -320z m70 200 c0 -5 -2 -10 -4 -10 -3 0 -8 5 -11 10 -3 6 -1 10 4 10 6 0
11 -4 11 -10z"/>
<path d="M1030 300 c-74 -20 -82 -29 -56 -62 15 -21 33 -23 38 -6 4 10 14 9
44 -4 58 -25 84 -31 84 -19 0 6 20 11 45 11 25 0 45 4 45 8 0 11 -57 43 -72
41 -11 -2 -38 7 -88 30 -8 4 -26 4 -40 1z"/>
<path d="M1990 160 c0 -5 7 -7 15 -4 8 4 15 8 15 10 0 2 -7 4 -15 4 -8 0 -15
-4 -15 -10z"/>
<path d="M2085 161 c-10 -17 4 -31 29 -31 12 0 27 -5 34 -12 9 -9 15 -9 23 -1
18 18 3 43 -25 43 -13 0 -31 3 -39 6 -8 3 -18 1 -22 -5z"/>
<path d="M1313 31 c-13 -11 -23 -22 -23 -25 0 -3 48 -6 106 -6 79 0 105 3 102
12 -6 18 -46 26 -94 21 -25 -3 -44 -1 -48 6 -10 15 -17 14 -43 -8z"/>
<path d="M1088 3 c7 -3 16 -2 19 1 4 3 -2 6 -13 5 -11 0 -14 -3 -6 -6z"/>
<path d="M1568 3 c6 -2 18 -2 25 0 6 3 1 5 -13 5 -14 0 -19 -2 -12 -5z"/>
</g>
</svg>
